<svg height='300px' width='300px'  fill="#ffffff" xmlns="http://www.w3.org/2000/svg" xmlns:xlink="http://www.w3.org/1999/xlink" version="1.1" x="0px" y="0px" viewBox="0 0 128 128" enable-background="new 0 0 128 128" xml:space="preserve"><path d="M126.905,112.061L68.668,11.191c-2.566-4.445-6.767-4.445-9.334,0L1.095,112.061c-2.567,4.445-0.466,8.082,4.668,8.082  h116.474C127.371,120.143,129.472,116.506,126.905,112.061z M68.742,39.112l-1.383,47.517H60.64l-1.383-47.517H68.742z   M63.902,106.781c-3.359,0-5.73-2.668-5.73-6.125c0-3.557,2.469-6.125,5.926-6.125c3.459,0,5.731,2.568,5.731,6.125  C69.828,104.113,67.557,106.781,63.902,106.781z"></path></svg>