<svg height='300px' width='300px'  fill="#000000" xmlns="http://www.w3.org/2000/svg" xmlns:xlink="http://www.w3.org/1999/xlink" xml:space="preserve" version="1.1" style="shape-rendering:geometricPrecision;text-rendering:geometricPrecision;image-rendering:optimizeQuality;" viewBox="0 0 847 847" x="0px" y="0px" fill-rule="evenodd" clip-rule="evenodd"><defs><style type="text/css">
   
    .fil0 {fill:#7D838D}
   
  </style></defs><g><path class="fil0" d="M805 150l-763 0c-19,0 -35,15 -35,33l0 480c0,19 16,33 35,33l763 1c19,0 34,-15 34,-33l0 -481c0,-18 -15,-33 -34,-33zm-255 297c65,42 231,164 231,164 15,10 -1,38 -17,28 0,0 -177,-122 -244,-166 -4,-2 -7,1 -7,1l-75 56 -30 0 -75 -57c0,0 -2,-2 -5,0 -67,44 -243,166 -243,166 -17,11 -35,-18 -19,-28 0,0 166,-122 230,-163 3,-3 -1,-6 -1,-6l-234 -201c-22,-17 0,-47 21,-31l334 278 15 0 334 -278c21,-16 42,14 21,31l-235 202c0,0 -4,2 -1,4z"></path></g></svg>